<?xml version="1.0" encoding="UTF-8" standalone="no"?>
<!DOCTYPE svg PUBLIC "-//W3C//DTD SVG 1.1//EN"
 "http://www.w3.org/Graphics/SVG/1.1/DTD/svg11.dtd">
<!-- Generated by graphviz version 2.43.0 (0)
 -->
<!-- Title: %3 Pages: 1 -->
<svg width="222pt" height="336pt"
 viewBox="0.00 0.00 222.00 336.00" xmlns="http://www.w3.org/2000/svg" xmlns:xlink="http://www.w3.org/1999/xlink">
<g id="graph0" class="graph" transform="scale(1 1) rotate(0) translate(4 332)">
<title>%3</title>
<polygon fill="white" stroke="transparent" points="-4,4 -4,-332 218,-332 218,4 -4,4"/>
<!-- 137903675646240 -->
<g id="node1" class="node">
<title>137903675646240</title>
<polygon fill="#caff70" stroke="black" points="133.5,-31 79.5,-31 79.5,0 133.5,0 133.5,-31"/>
<text text-anchor="middle" x="106.5" y="-7" font-family="monospace" font-size="10.00"> ()</text>
</g>
<!-- 137903673713680 -->
<g id="node2" class="node">
<title>137903673713680</title>
<polygon fill="lightgrey" stroke="black" points="151,-86 62,-86 62,-67 151,-67 151,-86"/>
<text text-anchor="middle" x="106.5" y="-74" font-family="monospace" font-size="10.00">SumBackward0</text>
</g>
<!-- 137903673713680&#45;&gt;137903675646240 -->
<g id="edge7" class="edge">
<title>137903673713680&#45;&gt;137903675646240</title>
<path fill="none" stroke="black" d="M106.5,-66.79C106.5,-60.07 106.5,-50.4 106.5,-41.34"/>
<polygon fill="black" stroke="black" points="110,-41.19 106.5,-31.19 103,-41.19 110,-41.19"/>
</g>
<!-- 137903673714016 -->
<g id="node3" class="node">
<title>137903673714016</title>
<polygon fill="lightgrey" stroke="black" points="151,-141 62,-141 62,-122 151,-122 151,-141"/>
<text text-anchor="middle" x="106.5" y="-129" font-family="monospace" font-size="10.00">AddBackward0</text>
</g>
<!-- 137903673714016&#45;&gt;137903673713680 -->
<g id="edge1" class="edge">
<title>137903673714016&#45;&gt;137903673713680</title>
<path fill="none" stroke="black" d="M106.5,-121.75C106.5,-114.8 106.5,-104.85 106.5,-96.13"/>
<polygon fill="black" stroke="black" points="110,-96.09 106.5,-86.09 103,-96.09 110,-96.09"/>
</g>
<!-- 137903674549168 -->
<g id="node4" class="node">
<title>137903674549168</title>
<polygon fill="lightgrey" stroke="black" points="95,-196 6,-196 6,-177 95,-177 95,-196"/>
<text text-anchor="middle" x="50.5" y="-184" font-family="monospace" font-size="10.00">MulBackward0</text>
</g>
<!-- 137903674549168&#45;&gt;137903673714016 -->
<g id="edge2" class="edge">
<title>137903674549168&#45;&gt;137903673714016</title>
<path fill="none" stroke="black" d="M59.5,-176.98C67.69,-169.23 80.01,-157.58 89.97,-148.14"/>
<polygon fill="black" stroke="black" points="92.48,-150.59 97.34,-141.17 87.67,-145.5 92.48,-150.59"/>
</g>
<!-- 137903673714112 -->
<g id="node5" class="node">
<title>137903673714112</title>
<polygon fill="lightgrey" stroke="black" points="101,-256.5 0,-256.5 0,-237.5 101,-237.5 101,-256.5"/>
<text text-anchor="middle" x="50.5" y="-244.5" font-family="monospace" font-size="10.00">AccumulateGrad</text>
</g>
<!-- 137903673714112&#45;&gt;137903674549168 -->
<g id="edge3" class="edge">
<title>137903673714112&#45;&gt;137903674549168</title>
<path fill="none" stroke="black" d="M50.5,-237.37C50.5,-229.25 50.5,-216.81 50.5,-206.39"/>
<polygon fill="black" stroke="black" points="54,-206.17 50.5,-196.17 47,-206.17 54,-206.17"/>
</g>
<!-- 137911131966672 -->
<g id="node6" class="node">
<title>137911131966672</title>
<polygon fill="lightblue" stroke="black" points="77.5,-328 23.5,-328 23.5,-298 77.5,-298 77.5,-328"/>
<text text-anchor="middle" x="50.5" y="-316" font-family="monospace" font-size="10.00">a</text>
<text text-anchor="middle" x="50.5" y="-305" font-family="monospace" font-size="10.00"> (3)</text>
</g>
<!-- 137911131966672&#45;&gt;137903673714112 -->
<g id="edge4" class="edge">
<title>137911131966672&#45;&gt;137903673714112</title>
<path fill="none" stroke="black" d="M50.5,-297.8C50.5,-288.7 50.5,-276.79 50.5,-266.9"/>
<polygon fill="black" stroke="black" points="54,-266.84 50.5,-256.84 47,-266.84 54,-266.84"/>
</g>
<!-- 137903673713872 -->
<g id="node7" class="node">
<title>137903673713872</title>
<polygon fill="lightgrey" stroke="black" points="214,-196 113,-196 113,-177 214,-177 214,-196"/>
<text text-anchor="middle" x="163.5" y="-184" font-family="monospace" font-size="10.00">AccumulateGrad</text>
</g>
<!-- 137903673713872&#45;&gt;137903673714016 -->
<g id="edge5" class="edge">
<title>137903673713872&#45;&gt;137903673714016</title>
<path fill="none" stroke="black" d="M154.34,-176.98C146,-169.23 133.47,-157.58 123.32,-148.14"/>
<polygon fill="black" stroke="black" points="125.53,-145.42 115.82,-141.17 120.76,-150.54 125.53,-145.42"/>
</g>
<!-- 137911131970592 -->
<g id="node8" class="node">
<title>137911131970592</title>
<polygon fill="lightblue" stroke="black" points="190.5,-262 136.5,-262 136.5,-232 190.5,-232 190.5,-262"/>
<text text-anchor="middle" x="163.5" y="-250" font-family="monospace" font-size="10.00">b</text>
<text text-anchor="middle" x="163.5" y="-239" font-family="monospace" font-size="10.00"> (3)</text>
</g>
<!-- 137911131970592&#45;&gt;137903673713872 -->
<g id="edge6" class="edge">
<title>137911131970592&#45;&gt;137903673713872</title>
<path fill="none" stroke="black" d="M163.5,-231.84C163.5,-224.21 163.5,-214.7 163.5,-206.45"/>
<polygon fill="black" stroke="black" points="167,-206.27 163.5,-196.27 160,-206.27 167,-206.27"/>
</g>
</g>
</svg>
